<?xml version="1.0" ?><!DOCTYPE svg  PUBLIC '-//W3C//DTD SVG 1.1//EN'  'http://www.w3.org/Graphics/SVG/1.1/DTD/svg11.dtd'><svg enable-background="new 0 0 512 512" id="Layer_1" version="1.1" viewBox="0 0 512 512" xml:space="preserve" xmlns="http://www.w3.org/2000/svg" xmlns:xlink="http://www.w3.org/1999/xlink"><circle cx="256" cy="256" fill="#9B5C8F" id="ellipse" r="256"/><g id="logo"><path d="M125.7,170.8h260.5c16.5,0,29.8,13.3,29.8,29.8V300c0,16.5-13.3,29.8-29.8,29.8h-93.4l12.8,31.4l-56.4-31.4   H125.8c-16.5,0-29.8-13.3-29.8-29.8v-99.4C95.9,184.2,109.2,170.8,125.7,170.8L125.7,170.8z" fill="#FFFFFF"/><path d="M114.2,198c1.8-2.5,4.6-3.8,8.2-4c6.6-0.5,10.4,2.6,11.3,9.4c4,27.2,8.5,50.2,13.1,69.1l28.5-54.2   c2.6-4.9,5.9-7.5,9.8-7.8c5.7-0.4,9.2,3.3,10.7,10.9c3.3,17.3,7.4,32,12.4,44.5c3.4-33,9.1-56.8,17.2-71.5c2-3.6,4.8-5.5,8.6-5.7   c3-0.3,5.7,0.7,8.2,2.6s3.8,4.4,4,7.4c0.1,2.3-0.3,4.3-1.3,6.2c-5.1,9.4-9.2,25.1-12.6,47c-3.3,21.2-4.4,37.7-3.6,49.6   c0.3,3.3-0.3,6.1-1.6,8.6c-1.6,2.9-3.9,4.4-6.9,4.7c-3.4,0.3-6.9-1.3-10.3-4.8c-12.1-12.4-21.7-30.8-28.7-55.4   c-8.5,16.7-14.7,29.1-18.7,37.5c-7.7,14.7-14.2,22.2-19.6,22.6c-3.5,0.3-6.5-2.7-9.1-9c-6.6-17-13.8-50-21.5-98.7   C111.6,203.3,112.4,200.3,114.2,198z M393.8,218.4c-4.7-8.2-11.6-13.1-20.8-15.1c-2.5-0.5-4.8-0.8-7-0.8   c-12.5,0-22.6,6.5-30.6,19.5c-6.8,11.1-10.1,23.3-10.1,36.7c0,10,2.1,18.6,6.2,25.8c4.7,8.2,11.6,13.1,20.8,15.1   c2.5,0.5,4.8,0.8,7,0.8c12.6,0,22.8-6.5,30.6-19.5c6.8-11.2,10.1-23.4,10.1-36.8C400.1,233.9,397.9,225.4,393.8,218.4z    M377.4,254.4c-1.8,8.6-5.1,15-9.9,19.3c-3.8,3.4-7.3,4.8-10.5,4.2c-3.1-0.7-5.7-3.4-7.7-8.5c-1.6-4-2.3-8.1-2.3-11.8   c0-3.3,0.3-6.5,0.9-9.5c1.2-5.3,3.4-10.5,6.9-15.5c4.3-6.4,8.8-9,13.5-8.1c3.1,0.7,5.7,3.4,7.7,8.5c1.6,4,2.3,8.1,2.3,11.8   C378.3,248.2,378,251.4,377.4,254.4z M312.3,218.4c-4.7-8.2-11.7-13.1-20.8-15.1c-2.5-0.5-4.8-0.8-7-0.8   c-12.5,0-22.6,6.5-30.6,19.5c-6.8,11.1-10.1,23.3-10.1,36.7c0,10,2.1,18.6,6.2,25.8c4.7,8.2,11.6,13.1,20.8,15.1   c2.5,0.5,4.8,0.8,7,0.8c12.6,0,22.8-6.5,30.6-19.5c6.8-11.2,10.1-23.4,10.1-36.8C318.6,233.9,316.5,225.4,312.3,218.4z    M295.8,254.4c-1.8,8.6-5.1,15-9.9,19.3c-3.8,3.4-7.3,4.8-10.5,4.2c-3.1-0.7-5.7-3.4-7.7-8.5c-1.6-4-2.3-8.1-2.3-11.8   c0-3.3,0.3-6.5,0.9-9.5c1.2-5.3,3.4-10.5,6.9-15.5c4.3-6.4,8.8-9,13.5-8.1c3.1,0.7,5.7,3.4,7.7,8.5c1.6,4,2.3,8.1,2.3,11.8   C296.9,248.2,296.5,251.4,295.8,254.4L295.8,254.4L295.8,254.4z" fill="#9B5C8F"/></g></svg>