<?xml version="1.0" encoding="iso-8859-1"?>
<!-- Generator: Adobe Illustrator 19.0.0, SVG Export Plug-In . SVG Version: 6.00 Build 0)  -->
<svg version="1.1" id="Capa_1" xmlns="http://www.w3.org/2000/svg" xmlns:xlink="http://www.w3.org/1999/xlink" x="0px" y="0px"
	 viewBox="0 0 409.6 409.6" style="enable-background:new 0 0 409.6 409.6;" xml:space="preserve">
<path style="fill:#3A556A;" d="M381.03,62.354H28.57c-4.725,0-8.555,3.83-8.555,8.555v241.325h369.571V70.909
	C389.585,66.184,385.755,62.354,381.03,62.354z"/>
<polygon style="fill:#E1E6E9;" points="0,312.235 0,338.834 22.342,347.246 387.258,347.246 409.6,338.834 409.6,312.235 "/>
<g>
	<polygon style="fill:#D5D6DB;" points="0,338.834 22.342,347.246 387.258,347.246 409.6,338.834 	"/>
	<rect x="167.183" y="322.867" style="fill:#D5D6DB;" width="75.238" height="5.345"/>
</g>
<rect x="42.353" y="84.695" style="fill:#27A2DB;" width="324.864" height="205.21"/>
<polygon style="fill:#2D93BA;" points="367.242,84.696 258.4,84.696 113.172,289.892 367.242,289.892 "/>
<circle style="fill:#2F4859;" cx="204.8" cy="73.288" r="5.693"/>
<circle style="fill:#64798A;" cx="204.8" cy="73.288" r="2.033"/>
<g>
</g>
<g>
</g>
<g>
</g>
<g>
</g>
<g>
</g>
<g>
</g>
<g>
</g>
<g>
</g>
<g>
</g>
<g>
</g>
<g>
</g>
<g>
</g>
<g>
</g>
<g>
</g>
<g>
</g>
</svg>
