<?xml version="1.0" encoding="iso-8859-1"?>
<!-- Generator: Adobe Illustrator 19.0.0, SVG Export Plug-In . SVG Version: 6.00 Build 0)  -->
<svg version="1.1" id="Capa_1" xmlns="http://www.w3.org/2000/svg" xmlns:xlink="http://www.w3.org/1999/xlink" x="0px" y="0px"
	 viewBox="0 0 512 512" style="enable-background:new 0 0 512 512;" xml:space="preserve">
<g>
	<path style="fill:#FFFFFF;" d="M373.2,97.6l16-68C392.4,16.8,404.4,8,418,8h52c9.6,0,18.4,7.2,19.2,16.8
		C490,36,482,45.6,470.8,45.6H438c-8.8,0-16,5.6-17.6,13.6L406,120"/>
	<rect x="26" y="140" style="fill:#FFFFFF;" width="460.8" height="290.4"/>
</g>
<rect x="58.16" y="172.168" style="fill:#27A2DE;" width="396.8" height="226.4"/>
<g>
	<polygon style="fill:#FFFFFF;" points="8.4,430.4 8.4,458.4 48.4,504 464.4,504 504.4,458.4 504.4,430.4 	"/>
	<path style="fill:#FFFFFF;" d="M162,236.8h203.2c6.4,0,12.8-4.8,14.4-11.2l27.2-108.8c2.4-9.6-4.8-18.4-14.4-18.4H110.8
		c-9.6,0-16.8,8.8-14.4,18.4l51.2,108.8C149.2,232,154.8,236.8,162,236.8z"/>
</g>
<g>
	<circle style="fill:#F15F50;" cx="354" cy="300" r="34.4"/>
	<circle style="fill:#F15F50;" cx="214.8" cy="300" r="34.4"/>
</g>
<path style="fill:#FFFFFF;" d="M162,236.8h203.2c6.4,0,12.8-4.8,14.4-11.2l27.2-108.8c2.4-9.6-4.8-18.4-14.4-18.4H110.8
	c-9.6,0-16.8,8.8-14.4,18.4l51.2,108.8C149.2,232,154.8,236.8,162,236.8z"/>
<g>
	<rect x="198" y="459.2" style="fill:#193651;" width="16" height="16"/>
	<rect x="248.4" y="459.2" style="fill:#193651;" width="16" height="16"/>
	<rect x="298.8" y="459.2" style="fill:#193651;" width="16" height="16"/>
	<path style="fill:#193651;" d="M0.4,461.6l44,50.4h423.2l44-50.4v-39.2H494V132h-84l17.6-71.2c0.8-4.8,5.6-8,10.4-8h32.8
		c16,0,28-13.6,26.4-28.8C495.6,10.4,483.6,0,470,0h-52c-16.8,0-32,12-36.8,28l-14.4,61.6h-256c-15.2,0-25.6,14.4-22.4,28.8
		l6.4,13.6H18v290.4H0.4V461.6z M397.2,32c2.4-9.6,11.2-16,20.8-16h52c5.6,0,11.2,4,11.2,9.6c0.8,6.4-4,11.2-10.4,11.2H438
		c-12,0-22.4,8-25.6,20l-8,36c-3.2-2.4-7.2-3.2-12-3.2h-8.8L397.2,32z M110.8,105.6h281.6c4,0,8,4,6.4,8.8l-27.2,108.8v0.8
		c-0.8,3.2-3.2,4.8-6.4,4.8H162c-3.2,0-5.6-2.4-6.4-4.8l-51.2-109.6C102.8,109.6,106,105.6,110.8,105.6z M380.4,300
		c0,14.4-12,26.4-26.4,26.4s-26.4-12-26.4-26.4s12-26.4,26.4-26.4C368.4,274.4,380.4,285.6,380.4,300z M34,148h68l37.6,80
		c3.2,9.6,12,16,21.6,16h202.4l-4.8,14.4c-1.6,0-3.2-0.8-5.6-0.8c-20.8,0-37.6,14.4-41.6,34.4h-56.8c-4-19.2-20.8-34.4-41.6-34.4
		c-23.2,0-42.4,19.2-42.4,42.4s19.2,42.4,42.4,42.4c20,0,37.6-14.4,41.6-33.6h56.8c4,19.2,20.8,33.6,41.6,33.6
		c23.2,0,42.4-19.2,42.4-42.4c0-16-8.8-29.6-21.6-36.8l12-36l0,0c0,0,0,0,0-0.8l19.2-79.2h72v274.4H34V148z M240.4,300
		c0,14.4-12,26.4-26.4,26.4s-26.4-12-26.4-26.4s12-26.4,26.4-26.4C229.2,274.4,240.4,285.6,240.4,300z M16.4,438.4h480V456l-36,40
		h-408l-36-40.8V438.4z"/>
	<path style="fill:#193651;" d="M314.8,204c4.8,0,8-3.2,8-8v-57.6c0-4.8-3.2-8-8-8s-8,3.2-8,8V196C306.8,200.8,310.8,204,314.8,204z
		"/>
	<path style="fill:#193651;" d="M263.6,204c4.8,0,8-3.2,8-8v-57.6c0-4.8-3.2-8-8-8s-8,3.2-8,8V196C255.6,200.8,258.8,204,263.6,204z
		"/>
	<path style="fill:#193651;" d="M211.6,204c4.8,0,8-3.2,8-8v-57.6c0-4.8-3.2-8-8-8s-8,3.2-8,8V196C203.6,200.8,206.8,204,211.6,204z
		"/>
</g>
<g>
</g>
<g>
</g>
<g>
</g>
<g>
</g>
<g>
</g>
<g>
</g>
<g>
</g>
<g>
</g>
<g>
</g>
<g>
</g>
<g>
</g>
<g>
</g>
<g>
</g>
<g>
</g>
<g>
</g>
</svg>
